<svg width="243" height="222" viewBox="0 0 243 222" fill="#0e3142" xmlns="http://www.w3.org/2000/svg">
<path fill-rule="evenodd" clip-rule="evenodd" d="M114.5 211C172.766 211 220 163.766 220 105.5C220 47.234 172.766 0 114.5 0C56.234 0 9 47.234 9 105.5C9 163.766 56.234 211 114.5 211ZM75.3483 56.5774C74.498 56.9789 74.3563 57.1915 74.2382 57.9946L74.1921 58.3112L74.1601 58.5327L74.1543 58.573L74.1523 58.5867V58.5868V58.587C73.9301 60.1272 73.8614 60.6028 73.5926 60.7882C73.4725 60.871 73.3125 60.896 73.081 60.932L73.081 60.932L73.0807 60.9321C73.0091 60.9432 72.9307 60.9554 72.8446 60.9707C71.5455 61.1597 70.2463 62.4116 69.2543 64.3248C68.8291 65.1751 68.1442 66.1908 67.7426 66.5924C67.0104 67.2773 66.9868 67.2773 65.8766 66.9467C63.0422 66.0727 60.6802 66.8758 59.57 69.0961C58.9559 70.3007 57.8457 71.1983 56.9482 71.1983C56.5466 71.1983 56.4049 70.9857 56.2396 70.1826L56.027 69.1906L54.9405 69.2142C53.9012 69.2142 53.7358 69.3323 51.6808 71.1983C50.051 72.6864 49.4606 73.4186 49.248 74.1036C48.9173 75.1901 48.3268 75.6153 45.7049 76.6073C44.4295 77.1034 43.2248 77.8356 41.6895 79.0402C38.3591 81.6384 38.0048 81.7802 34.8633 82.04C33.3752 82.1817 31.6982 82.4415 31.1313 82.6541C28.8874 83.4572 27.4701 85.0634 26.5017 87.9923C25.6514 90.5196 25.179 90.8739 23.0532 90.6614L21.447 90.5196L21.1163 91.7006C20.9037 92.3384 20.6675 93.8501 20.5967 95.0311C20.4313 97.1333 20.4313 97.1569 20.9746 97.275C23.3366 97.771 34.3672 97.8419 40.0361 97.4167L43.5083 97.1333L44.335 96.3538C45.4923 95.2437 46.8859 94.6768 50.0274 94.0863C59.3574 92.3148 59.7354 92.2203 60.1605 90.9212C60.3967 90.2362 60.5384 90.1417 61.5305 90C64.294 89.5984 64.9082 89.5748 65.5932 89.8346C66.3726 90.0945 72.9154 90.4488 83.143 90.7795C89.048 90.9684 89.237 90.992 89.8039 91.5117C90.1346 91.8187 90.7251 92.1022 91.1502 92.1494C92.0242 92.2439 92.5438 92.6691 93.4414 93.9918C93.6325 94.2721 93.9199 94.683 94.2182 95.1096L94.223 95.1166L94.2283 95.1241L94.2338 95.1319C94.4835 95.4891 94.74 95.8558 94.9531 96.1649C95.0845 96.3554 95.2195 96.5733 95.3491 96.8014H97.5615C98.0255 96.8014 98.2575 97.0414 98.2575 97.5214L98.2819 99.5426H103.469L104.497 97.4014C104.689 97.0014 104.993 96.8014 105.409 96.8014H108.313C108.505 96.8014 108.601 96.8814 108.601 97.0414C108.601 97.2014 108.465 97.3054 108.193 97.3534L107.617 97.4494C107.265 97.5134 107.025 97.6014 106.897 97.7134C106.769 97.8254 106.665 98.0494 106.585 98.3854L106.357 99.5426H110.672C110.812 99.35 110.957 99.1643 111.105 98.9854C111.745 98.2174 112.425 97.6254 113.145 97.2094C113.881 96.7774 114.633 96.5614 115.401 96.5614C116.649 96.5614 117.633 97.0734 118.353 98.0974C119.055 99.0579 119.422 100.469 119.455 102.33C120.249 103.159 121.364 104.338 122.64 105.699L122.519 98.7214C122.503 98.2734 122.447 97.9614 122.351 97.7854C122.255 97.6094 122.055 97.4894 121.751 97.4254L121.439 97.3534C121.247 97.3054 121.151 97.2094 121.151 97.0654C121.151 96.8894 121.287 96.8014 121.559 96.8014H125.519C125.727 96.8014 125.831 96.8814 125.831 97.0414C125.831 97.2174 125.671 97.3214 125.351 97.3534L124.871 97.4014C124.599 97.4174 124.407 97.5054 124.295 97.6654C124.199 97.8094 124.151 98.0574 124.151 98.4094L124.246 107.415C124.589 107.782 124.938 108.156 125.29 108.535L129.911 98.9134C130.359 98.0014 130.215 97.4974 129.479 97.4014L129.143 97.3534C128.903 97.3054 128.783 97.2094 128.783 97.0654C128.783 96.8894 128.919 96.8014 129.191 96.8014H132.671C132.765 96.8014 132.835 96.8203 132.883 96.8583C132.954 96.8203 133.054 96.8014 133.182 96.8014H141.198C141.614 96.8014 141.782 96.9854 141.702 97.3534L140.958 101.337C140.91 101.609 140.782 101.745 140.574 101.745C140.35 101.745 140.254 101.641 140.286 101.433L140.358 100.593C140.438 99.7774 140.366 99.1374 140.142 98.6734C139.934 98.2094 139.614 97.8814 139.182 97.6894C138.766 97.4974 138.278 97.4014 137.718 97.4014C137.078 97.4014 136.614 97.4974 136.326 97.6894C136.038 97.8654 135.838 98.1854 135.726 98.6494L134.406 104.433C134.358 104.657 134.446 104.769 134.67 104.769H135.894C136.598 104.769 137.11 104.393 137.43 103.641L137.958 102.441C138.038 102.233 138.166 102.129 138.342 102.129C138.438 102.129 138.51 102.169 138.558 102.249C138.622 102.313 138.638 102.409 138.606 102.537L137.358 107.937C137.278 108.209 137.142 108.345 136.95 108.345C136.758 108.345 136.662 108.241 136.662 108.033L136.686 106.857C136.702 106.297 136.63 105.929 136.47 105.753C136.326 105.577 136.07 105.489 135.702 105.489H134.502C134.262 105.489 134.118 105.601 134.07 105.825L132.678 111.849C132.55 112.425 132.606 112.841 132.846 113.097C133.086 113.353 133.598 113.481 134.382 113.481C134.862 113.481 135.334 113.409 135.798 113.265C136.278 113.105 136.726 112.809 137.142 112.377C137.574 111.945 137.966 111.321 138.318 110.505L138.894 109.161C138.974 108.953 139.102 108.849 139.278 108.849C139.518 108.849 139.598 108.985 139.518 109.257L138.294 113.529C138.198 113.897 137.958 114.081 137.574 114.081H130.432C131.156 114.866 131.841 115.611 132.462 116.289C133.808 117.777 135.981 120.116 137.304 121.486C138.603 122.856 140.115 124.651 140.682 125.454C141.225 126.281 141.745 126.942 141.839 126.942C141.934 126.942 142.855 126.777 143.894 126.588C145.288 126.304 146.469 126.257 148.406 126.375C150.98 126.517 151.027 126.517 151.429 125.974C151.642 125.666 151.878 125.005 151.972 124.509C152.138 123.47 152.327 123.399 152.657 124.273L152.657 124.273L152.657 124.273L152.658 124.274C152.772 124.566 152.836 124.729 152.897 124.728C152.973 124.726 153.043 124.464 153.2 123.872L153.201 123.871C154.169 120.21 155.704 117.541 158.397 114.896C158.703 114.593 159.123 114.224 159.623 113.812C158.966 114.136 158.228 114.297 157.41 114.297C156.962 114.297 156.482 114.249 155.97 114.153C155.474 114.057 155.002 113.929 154.554 113.769C154.122 113.593 153.778 113.393 153.522 113.169C153.442 113.089 153.386 113.009 153.354 112.929C153.338 112.849 153.346 112.729 153.378 112.569L154.05 108.801C154.098 108.513 154.226 108.369 154.434 108.369C154.626 108.369 154.722 108.529 154.722 108.849L154.746 109.785C154.778 111.129 155.01 112.097 155.442 112.689C155.874 113.281 156.578 113.577 157.554 113.577C158.45 113.577 159.194 113.257 159.786 112.617C160.378 111.961 160.674 111.089 160.674 110.001C160.674 109.297 160.482 108.561 160.098 107.793C159.714 107.025 159.178 106.257 158.49 105.489C157.674 104.577 157.066 103.745 156.666 102.993C156.282 102.241 156.09 101.449 156.09 100.617C156.09 99.9614 156.25 99.3294 156.57 98.7214C156.89 98.0974 157.37 97.5854 158.01 97.1854C158.666 96.7694 159.498 96.5614 160.506 96.5614C161.898 96.5614 162.962 96.8734 163.698 97.4974C163.922 97.6734 164.002 97.9374 163.938 98.2894L163.266 101.793C163.218 102.033 163.106 102.153 162.93 102.153C162.754 102.153 162.65 102.017 162.618 101.745L162.594 101.241C162.53 99.9454 162.346 98.9614 162.042 98.2894C161.754 97.6014 161.17 97.2574 160.29 97.2574C159.65 97.2574 159.138 97.4014 158.754 97.6894C158.37 97.9774 158.09 98.3374 157.914 98.7694C157.738 99.1854 157.65 99.6014 157.65 100.017C157.65 100.481 157.714 100.929 157.842 101.361C157.97 101.777 158.186 102.225 158.49 102.705C158.81 103.169 159.242 103.737 159.786 104.409C160.554 105.321 161.154 106.193 161.586 107.025C162.018 107.857 162.234 108.665 162.234 109.449C162.234 110.393 162.018 111.233 161.586 111.969C161.453 112.199 161.304 112.414 161.14 112.613C164.097 110.357 168.174 107.619 169.546 107.077C170.231 106.818 171.435 106.203 172.215 105.731C173.608 104.857 173.656 104.857 175.994 104.881C177.317 104.904 179.159 105.093 180.104 105.282C181.687 105.589 181.852 105.589 181.97 105.235C182.49 103.605 183.387 102.259 184.497 101.409C185.82 100.369 186.765 98.9048 186.765 97.8419C186.765 97.2986 186.67 97.1805 186.222 97.1805C185.915 97.1805 185.466 97.3931 185.23 97.6529C184.663 98.2907 184.45 98.2434 184.143 97.464C184.098 97.3502 184.045 97.2194 183.99 97.084C183.874 96.7978 183.751 96.4914 183.671 96.283L183.458 95.7397L182.655 96.3538C181.498 97.2278 177.128 99.0702 176.183 99.0702C175.734 99.0702 175.026 98.9048 174.577 98.6922C173.797 98.3143 172.711 97.2278 172.923 96.9916C172.994 96.9443 173.632 97.1097 174.364 97.3931C176.655 98.2434 177.978 97.96 179.537 96.2357C180.789 94.8421 182.915 90.2362 182.56 89.6929C182.324 89.3622 181.285 88.8426 178.97 87.945C176.821 87.1419 174.908 86.0554 175.333 85.9137C175.474 85.8665 176.514 86.0554 177.647 86.3152C178.781 86.5751 179.797 86.7876 179.891 86.7876C180.009 86.7876 180.175 86.1971 180.269 85.4413L180.435 84.1186L181.12 85.3704C182.088 87.1656 182.253 87.3073 183.033 87.1419C183.576 87.0002 183.86 87.1183 184.45 87.7088C184.875 88.1104 185.253 88.3702 185.324 88.2521C185.395 88.1576 186.458 88.134 187.686 88.2049C190.686 88.3702 191.3 87.9687 193.024 84.7091C193.922 83.032 195.504 81.5912 196.449 81.5912C197.323 81.5912 197.725 81.0243 198.221 79.0166C198.551 77.7883 198.575 77.1978 198.362 75.6625C197.961 72.6391 197.181 71.5998 195.339 71.5762C194.252 71.5526 194.205 71.5998 193.638 72.5919C193.237 73.3241 193.024 74.1981 192.883 75.6861C192.764 76.8435 192.552 78.119 192.363 78.5678L192.032 79.3473L191.843 77.9537C191.678 76.6073 191.796 73.7493 192.103 72.71C192.198 72.3793 192.032 71.9778 191.654 71.529C191.087 70.8912 190.969 70.844 189.316 70.8912C188.371 70.8912 186.292 71.1274 184.71 71.4109C183.104 71.6707 181.002 71.9541 180.009 72.0486L178.191 72.214L178.356 71.529C178.687 70.2535 179.088 69.663 179.561 69.7338C181.592 70.1118 181.946 70.0645 184.261 69.0725C185.537 68.5292 187.686 67.797 189.009 67.4663C189.164 67.4284 189.311 67.3932 189.448 67.3602C190.572 67.0902 191.104 66.9625 191.237 66.6597C191.356 66.388 191.155 65.9752 190.772 65.192L190.769 65.1856L190.766 65.1794C190.719 65.0815 190.668 64.9779 190.615 64.8681C190.284 64.1831 190.048 63.5926 190.095 63.5454C190.143 63.4745 190.922 64.065 191.82 64.8445C192.741 65.6003 193.615 66.2381 193.78 66.2381C193.969 66.2381 194.087 65.9546 194.087 65.5294C194.087 64.4665 194.418 64.6791 195.126 66.2144C195.481 66.9703 195.953 67.7734 196.213 68.0096C196.591 68.3639 196.52 67.8442 195.622 64.4429C195.332 63.3615 195.058 62.3201 194.844 61.5048L194.843 61.5019L194.838 61.4809L194.836 61.4753L194.836 61.4741L194.835 61.4695C194.619 60.6473 194.465 60.0615 194.418 59.9078C194.323 59.5535 194.111 59.3882 193.804 59.4354C193.473 59.4827 193.095 59.0811 192.339 57.8529L191.324 56.1995L76.3404 56.0814L75.3483 56.5774ZM104.209 102.141L102.145 112.497C102.081 112.833 101.977 113.057 101.833 113.169C101.705 113.281 101.465 113.369 101.113 113.433L100.537 113.529C100.281 113.577 100.153 113.681 100.153 113.841C100.153 114.001 100.265 114.081 100.489 114.081H104.761C105.049 114.081 105.193 113.985 105.193 113.793C105.193 113.729 105.169 113.673 105.121 113.625C105.073 113.561 104.969 113.521 104.809 113.505L104.401 113.433C104.081 113.369 103.881 113.281 103.801 113.169C103.737 113.057 103.737 112.833 103.801 112.497L105.845 102.141H109.198C108.836 102.963 108.544 103.84 108.321 104.769C108.049 105.905 107.913 107.065 107.913 108.249C107.913 110.233 108.273 111.737 108.993 112.761C109.729 113.785 110.721 114.297 111.969 114.297C112.737 114.297 113.481 114.089 114.201 113.673C114.937 113.241 115.617 112.649 116.241 111.897C116.881 111.129 117.441 110.257 117.921 109.281C118.401 108.289 118.777 107.225 119.049 106.089C119.085 105.939 119.119 105.787 119.15 105.636C120.006 106.554 121.12 107.745 122.242 108.945L122.249 108.952L122.705 109.44L122.783 113.937C122.783 114.097 122.815 114.201 122.879 114.249C122.943 114.297 123.007 114.321 123.071 114.321C123.135 114.321 123.207 114.297 123.287 114.249C123.383 114.201 123.463 114.097 123.527 113.937L124.672 111.545L125.022 111.92C126.982 114.022 129.628 116.88 130.927 118.321C132.202 119.738 134.281 121.958 135.533 123.281C136.785 124.58 138.036 125.997 138.32 126.422L138.839 127.178L137.706 127.698C137.092 127.981 136.477 128.17 136.383 128.147C136.005 128.076 133.737 129.729 132.533 131.005C130.879 132.729 129.391 134.666 129.226 135.351C129.155 135.658 128.872 135.965 128.612 136.036C128.116 136.201 127.218 138.02 126.77 139.697C126.662 140.146 126.5 140.717 126.376 141.152C126.337 141.289 126.302 141.414 126.274 141.516C126.155 141.917 126.037 142.768 126.037 143.405C126.014 144.35 125.896 144.681 125.281 145.319C124.88 145.72 124.455 146.074 124.313 146.074C123.912 146.074 122.99 147.09 122.99 147.515C122.99 148.318 122.211 148.885 120.817 149.051C119.683 149.169 119.424 149.145 119.306 148.814C119.069 148.2 118.55 148.389 117.912 149.31C117.345 150.184 117.345 150.208 117.794 150.373C118.054 150.468 118.266 150.586 118.266 150.657C118.266 151.129 117.794 151.602 116.755 152.192C116.093 152.594 115.314 153.208 115.054 153.562C114.77 153.94 114.015 154.483 113.353 154.814C112.668 155.145 112.149 155.57 112.125 155.782C112.125 156.373 111.416 157.648 111.086 157.648C110.92 157.648 110.354 157.979 109.81 158.381C109.291 158.758 108.44 159.16 107.944 159.231C107.448 159.302 106.74 159.632 106.385 159.939C106.007 160.223 105.535 160.483 105.299 160.483C105.063 160.483 104.685 160.695 104.448 160.955C104.212 161.215 103.905 161.428 103.74 161.428C103.575 161.428 103.267 161.64 103.031 161.9C102.701 162.278 102.535 162.301 102.275 162.089C102.039 161.9 101.874 161.9 101.685 162.089C101.331 162.443 100.551 162.467 100.551 162.136C100.551 161.994 100.409 161.9 100.22 161.9C99.937 161.9 99.937 162.042 100.15 162.727C100.291 163.175 100.528 163.553 100.716 163.553C101.118 163.553 101.118 164.286 100.669 164.876C100.48 165.112 100.315 165.561 100.315 165.845C100.315 166.175 100.173 166.388 99.937 166.388C99.7244 166.388 99.252 166.648 98.8505 166.978C98.3072 167.427 97.882 167.569 96.9845 167.569C95.8271 167.569 95.827 167.569 95.827 168.348C95.827 168.844 95.6381 169.317 95.3547 169.577C95.0949 169.813 94.8823 170.143 94.8823 170.285C94.8823 170.45 94.6933 170.639 94.4807 170.734C94.2445 170.805 93.5359 171.159 92.8745 171.537C91.788 172.128 91.6936 172.246 91.7644 172.954C91.8116 173.639 91.7408 173.71 91.1739 173.71C90.8196 173.71 90.2763 173.474 89.9456 173.167C89.5913 172.86 88.8827 172.482 88.3395 172.316C87.1585 171.986 86.6624 171.513 85.9538 170.073C85.3633 168.892 85.2925 167.876 85.7885 167.238C86.2845 166.6 86.2373 165.821 85.6704 165.325C85.4106 165.089 85.198 164.711 85.198 164.451C85.198 164.215 85.1035 163.837 84.9854 163.601C84.8437 163.388 84.702 162.939 84.6311 162.609C84.4658 161.782 83.0958 160.317 82.3399 160.128C81.3007 159.869 80.4739 158.829 80.4739 157.766C80.4739 155.475 80.1905 153.16 79.9307 153.16C79.5055 153.16 78.5843 150.586 78.5843 149.428C78.5843 148.531 78.4898 148.389 77.5922 147.799C77.0254 147.421 75.9861 146.807 75.2775 146.429C74.4508 145.98 73.8367 145.437 73.6005 144.988C73.4115 144.586 72.8446 143.901 72.3722 143.476C71.7817 142.98 71.4983 142.508 71.4983 142.083C71.4746 141.657 71.262 141.327 70.7188 140.996C69.9865 140.524 69.9629 140.453 69.9629 138.894C69.9393 137.429 69.8921 137.24 69.4197 137.075C69.1362 136.957 68.9 136.721 68.9 136.532C68.9 136.012 67.1521 134.264 66.6325 134.264C66.042 134.264 64.672 133.107 64.5303 132.493C64.3177 131.524 63.5382 129.564 63.2312 129.186C63.0422 128.973 62.2155 128.288 61.3652 127.698C58.6488 125.785 57.1372 124.344 56.8301 123.423C56.6884 122.95 56.4286 122.407 56.2632 122.218C56.0979 122.029 55.7908 121.509 55.5782 121.084C55.3657 120.683 55.035 120.328 54.8696 120.328C54.4917 120.328 54.1846 119.573 53.7595 117.73C53.6178 117.022 53.1217 115.864 52.6966 115.179C52.2478 114.494 51.8935 113.809 51.8935 113.667C51.8935 113.526 51.6573 112.888 51.3738 112.25C50.9487 111.305 50.7597 111.117 50.2165 111.117C49.8621 111.117 49.5315 111.235 49.4842 111.4C49.3425 111.801 48.1615 111.424 47.571 110.762C47.2875 110.455 46.7443 109.817 46.3664 109.345C45.9884 108.873 45.1854 108.235 44.5712 107.928C43.9807 107.621 43.3429 107.196 43.154 106.983C42.9887 106.77 42.5399 106.44 42.1856 106.251C41.8313 106.085 41.477 105.707 41.3825 105.448C41.1699 104.739 41.9258 102.849 42.8469 101.905C43.2721 101.432 43.6264 100.936 43.6264 100.771C43.6264 100.606 43.7209 100.487 43.8626 100.487C43.9807 100.487 44.4531 100.157 44.8783 99.7788C45.3271 99.3773 45.8231 99.0702 45.9648 99.0702C46.1065 99.0702 46.2246 98.8104 46.2246 98.4797C46.2246 97.3932 46.6734 97.2514 54.8932 95.6689C58.6252 94.9367 60.4204 94.2989 61.5541 93.2832C62.0265 92.8581 62.5698 92.4565 62.7588 92.3857C62.9477 92.2912 63.7981 92.2676 64.6484 92.3384C71.0495 92.8109 73.7186 92.9289 80.4739 93.1652L81.0327 93.185C86.8103 93.3902 88.3356 93.4444 88.651 94.0898C88.7641 94.3213 88.7216 94.6288 88.6638 95.0467L88.6638 95.0468L88.6465 95.1729C88.552 95.6925 88.5757 95.9996 88.6701 95.8815C89.0008 95.4563 90.1346 94.8186 90.5597 94.8186C90.796 94.8186 91.1739 95.102 91.3865 95.4799C91.6227 95.8342 92.2368 96.7082 92.7564 97.4168C93.654 98.645 93.7013 98.8104 93.7013 100.417V102.141H94.6911L92.0655 112.017C91.9535 112.465 91.7935 112.809 91.5855 113.049C91.3775 113.273 91.0575 113.417 90.6255 113.481L90.2895 113.529C90.0335 113.561 89.9055 113.665 89.9055 113.841C89.9055 114.001 90.0255 114.081 90.2655 114.081H93.6495C93.9535 114.081 94.1055 113.985 94.1055 113.793C94.1055 113.633 94.0095 113.545 93.8175 113.529L93.5295 113.481C93.1455 113.417 92.8975 113.273 92.7855 113.049C92.6895 112.809 92.6975 112.465 92.8095 112.017L95.4444 102.141H96.656L96.8415 113.457C96.8415 113.617 96.8735 113.721 96.9375 113.769C97.0015 113.817 97.0735 113.841 97.1535 113.841C97.2335 113.841 97.3055 113.817 97.3695 113.769C97.4495 113.721 97.5215 113.617 97.5855 113.457L102.994 102.141H104.209ZM104.727 99.5426L104.857 98.8894C104.889 98.7774 104.865 98.7134 104.785 98.6974C104.705 98.6654 104.641 98.6974 104.593 98.7934L104.235 99.5426H104.727ZM102.222 102.141H98.3133L98.4015 109.449C98.4015 109.561 98.4335 109.625 98.4975 109.641C98.5775 109.641 98.6415 109.593 98.6895 109.497L102.222 102.141ZM96.6134 99.5426L96.6015 98.8174C96.6015 98.7054 96.5615 98.6494 96.4815 98.6494C96.4175 98.6494 96.3695 98.6974 96.3375 98.7934L96.2467 99.1336L96.3467 99.5426H96.6134ZM117.489 104.721C117.534 104.478 117.575 104.233 117.61 103.988L115.881 102.141H110.978C110.907 102.325 110.837 102.513 110.769 102.705C110.385 103.777 110.081 104.921 109.857 106.137C109.649 107.353 109.545 108.585 109.545 109.833C109.545 112.393 110.337 113.673 111.921 113.673C112.513 113.673 113.089 113.441 113.649 112.977C114.225 112.497 114.761 111.849 115.257 111.033C115.769 110.201 116.217 109.249 116.601 108.177C116.985 107.089 117.281 105.937 117.489 104.721ZM116.755 99.5426L117.819 100.641C117.742 98.3371 116.952 97.1854 115.449 97.1854C114.857 97.1854 114.273 97.4254 113.697 97.9054C113.208 98.3107 112.737 98.8564 112.285 99.5426H116.755ZM132.829 97.2522C132.767 97.2929 132.682 97.3266 132.575 97.3534L132.191 97.4254C131.871 97.4894 131.599 97.6494 131.375 97.9054C131.151 98.1454 130.927 98.4894 130.703 98.9374L125.833 109.117C127.176 110.56 128.553 112.046 129.836 113.435L129.846 113.433C130.198 113.385 130.438 113.305 130.566 113.193C130.71 113.065 130.814 112.833 130.878 112.497L134.142 98.3854C134.222 98.0494 134.222 97.8254 134.142 97.7134C134.062 97.6014 133.862 97.5134 133.542 97.4494L133.062 97.3534C132.959 97.3295 132.881 97.2958 132.829 97.2522ZM148.64 113.577C149.072 114.057 149.624 114.297 150.296 114.297C150.776 114.297 151.184 114.185 151.52 113.961C151.856 113.721 152.024 113.489 152.024 113.265C152.024 113.137 151.968 113.049 151.856 113.001C151.76 112.953 151.648 112.985 151.52 113.097C151.36 113.209 151.232 113.289 151.136 113.337C151.04 113.369 150.928 113.385 150.8 113.385C150.464 113.385 150.2 113.225 150.008 112.905C149.816 112.569 149.72 111.961 149.72 111.081V108.633C149.72 107.913 149.64 107.337 149.48 106.905C149.32 106.473 149.016 106.137 148.568 105.897C148.472 105.849 148.424 105.793 148.424 105.729C148.44 105.649 148.496 105.601 148.592 105.585C149.392 105.361 150.136 105.017 150.824 104.553C151.528 104.073 152.096 103.489 152.528 102.801C152.96 102.113 153.176 101.345 153.176 100.497C153.176 99.8254 153.016 99.2094 152.696 98.6494C152.392 98.0894 151.928 97.6414 151.304 97.3054C150.68 96.9694 149.896 96.8014 148.952 96.8014H144.08C143.792 96.8014 143.648 96.8974 143.648 97.0894C143.648 97.2174 143.752 97.3054 143.96 97.3534L144.44 97.4494C144.76 97.5134 144.96 97.6014 145.04 97.7134C145.12 97.8254 145.12 98.0494 145.04 98.3854L141.776 112.497C141.712 112.833 141.608 113.065 141.464 113.193C141.336 113.305 141.096 113.385 140.744 113.433L140.264 113.505C139.944 113.553 139.784 113.665 139.784 113.841C139.784 114.001 139.896 114.081 140.12 114.081H145.208C145.464 114.081 145.592 113.985 145.592 113.793C145.592 113.633 145.48 113.545 145.256 113.529L144.2 113.385C143.8 113.321 143.552 113.225 143.456 113.097C143.36 112.969 143.352 112.737 143.432 112.401L144.824 106.569C144.888 106.297 145 106.097 145.16 105.969C145.336 105.841 145.6 105.777 145.952 105.777C146.544 105.777 146.992 105.857 147.296 106.017C147.6 106.177 147.808 106.481 147.92 106.929C148.032 107.377 148.08 108.033 148.064 108.897L148.04 111.561C148.024 112.425 148.224 113.097 148.64 113.577ZM149.048 104.529C148.344 104.961 147.592 105.177 146.792 105.177C145.672 105.177 145.216 104.737 145.424 103.857L146.696 98.3614C146.856 97.7214 147.448 97.4014 148.472 97.4014C149.56 97.4014 150.32 97.6654 150.752 98.1934C151.2 98.7054 151.424 99.4094 151.424 100.305C151.424 101.217 151.2 102.041 150.752 102.777C150.32 103.513 149.752 104.097 149.048 104.529ZM74.4026 114.081C74.2106 114.081 74.1146 114.001 74.1146 113.841C74.1146 113.697 74.2426 113.593 74.4986 113.529L74.8826 113.457C75.2026 113.393 75.4826 113.241 75.7226 113.001C75.9466 112.745 76.1626 112.393 76.3706 111.945L83.5466 96.9454C83.6266 96.7854 83.7066 96.6814 83.7866 96.6334C83.8666 96.5854 83.9386 96.5614 84.0026 96.5614C84.0826 96.5614 84.1466 96.5854 84.1946 96.6334C84.2586 96.6814 84.2906 96.7854 84.2906 96.9454L84.5546 112.161C84.5706 112.609 84.6266 112.921 84.7226 113.097C84.8186 113.257 85.0186 113.377 85.3226 113.457L85.6346 113.529C85.8266 113.577 85.9226 113.673 85.9226 113.817C85.9226 113.993 85.7866 114.081 85.5146 114.081H81.5546C81.3466 114.081 81.2426 114.001 81.2426 113.841C81.2426 113.665 81.4026 113.561 81.7226 113.529L82.2026 113.481C82.4746 113.449 82.6586 113.361 82.7546 113.217C82.8666 113.073 82.9226 112.825 82.9226 112.473L82.8746 108.753C82.8746 108.337 82.6586 108.129 82.2266 108.129H79.6586C79.2426 108.129 78.9306 108.337 78.7226 108.753L77.1626 111.969C76.7306 112.881 76.8746 113.385 77.5946 113.481L77.9306 113.529C78.1706 113.561 78.2906 113.657 78.2906 113.817C78.2906 113.993 78.1546 114.081 77.8826 114.081H74.4026ZM79.7546 107.409H82.4426C82.7146 107.409 82.8506 107.273 82.8506 107.001L82.8026 100.449H82.6826L79.5386 107.001C79.4746 107.113 79.4666 107.209 79.5146 107.289C79.5626 107.369 79.6426 107.409 79.7546 107.409ZM64.7375 113.841C64.7375 114.001 64.8495 114.081 65.0735 114.081H70.1615C70.4495 114.081 70.5935 113.977 70.5935 113.769C70.5935 113.625 70.5215 113.545 70.3775 113.529L69.2255 113.385C68.8255 113.337 68.5615 113.249 68.4335 113.121C68.3215 112.993 68.3055 112.753 68.3855 112.401L69.7295 106.665C69.8095 106.393 69.9775 106.257 70.2335 106.257H71.6495C72.8815 106.257 73.9535 105.993 74.8655 105.465C75.7935 104.937 76.5135 104.249 77.0255 103.401C77.5535 102.537 77.8175 101.601 77.8175 100.593C77.8175 99.5054 77.4655 98.6014 76.7615 97.8814C76.0575 97.1614 75.0415 96.8014 73.7135 96.8014H69.0335C68.7455 96.8014 68.6015 96.8974 68.6015 97.0894C68.6015 97.2174 68.7055 97.3054 68.9135 97.3534L69.3935 97.4494C69.7615 97.5134 69.9695 97.6174 70.0175 97.7614C70.0655 97.9054 70.0575 98.1134 69.9935 98.3854L66.7295 112.497C66.6655 112.833 66.5615 113.065 66.4175 113.193C66.2895 113.305 66.0495 113.385 65.6975 113.433L65.2175 113.505C64.8975 113.553 64.7375 113.665 64.7375 113.841ZM70.4015 105.321C70.2255 105.081 70.1855 104.753 70.2815 104.337L71.6495 98.3614C71.7935 97.7214 72.3535 97.4014 73.3295 97.4014C74.2255 97.4014 74.9055 97.6734 75.3695 98.2174C75.8335 98.7614 76.0655 99.4734 76.0655 100.353C76.0655 100.913 75.9775 101.505 75.8015 102.129C75.6415 102.737 75.3775 103.313 75.0095 103.857C74.6575 104.385 74.1935 104.817 73.6175 105.153C73.0575 105.489 72.3775 105.657 71.5775 105.657C70.9855 105.657 70.5935 105.545 70.4015 105.321ZM59.7223 114.297C59.2743 114.297 58.7943 114.249 58.2823 114.153C57.7863 114.057 57.3143 113.929 56.8663 113.769C56.4343 113.593 56.0903 113.393 55.8343 113.169C55.7543 113.089 55.6983 113.009 55.6663 112.929C55.6503 112.849 55.6583 112.729 55.6903 112.569L56.3623 108.801C56.4103 108.513 56.5383 108.369 56.7463 108.369C56.9383 108.369 57.0343 108.529 57.0343 108.849L57.0583 109.785C57.0903 111.129 57.3223 112.097 57.7543 112.689C58.1863 113.281 58.8903 113.577 59.8663 113.577C60.7623 113.577 61.5063 113.257 62.0983 112.617C62.6903 111.961 62.9863 111.089 62.9863 110.001C62.9863 109.297 62.7943 108.561 62.4103 107.793C62.0263 107.025 61.4903 106.257 60.8023 105.489C59.9863 104.577 59.3783 103.745 58.9783 102.993C58.5943 102.241 58.4023 101.449 58.4023 100.617C58.4023 99.9614 58.5623 99.3294 58.8823 98.7214C59.2023 98.0974 59.6823 97.5854 60.3223 97.1854C60.9783 96.7694 61.8103 96.5614 62.8183 96.5614C64.2103 96.5614 65.2743 96.8734 66.0103 97.4974C66.2343 97.6734 66.3143 97.9374 66.2503 98.2894L65.5783 101.793C65.5303 102.033 65.4183 102.153 65.2423 102.153C65.0663 102.153 64.9623 102.017 64.9303 101.745L64.9063 101.241C64.8423 99.9454 64.6583 98.9614 64.3543 98.2894C64.0663 97.6014 63.4823 97.2574 62.6023 97.2574C61.9623 97.2574 61.4503 97.4014 61.0663 97.6894C60.6823 97.9774 60.4023 98.3374 60.2263 98.7694C60.0503 99.1854 59.9623 99.6014 59.9623 100.017C59.9623 100.481 60.0263 100.929 60.1543 101.361C60.2823 101.777 60.4983 102.225 60.8023 102.705C61.1223 103.169 61.5543 103.737 62.0983 104.409C62.8663 105.321 63.4663 106.193 63.8983 107.025C64.3303 107.857 64.5463 108.665 64.5463 109.449C64.5463 110.393 64.3303 111.233 63.8983 111.969C63.4823 112.689 62.9143 113.257 62.1943 113.673C61.4743 114.089 60.6503 114.297 59.7223 114.297ZM137.853 82.8414C137.853 83.0014 137.949 83.0814 138.141 83.0814H141.621C141.893 83.0814 142.029 82.9934 142.029 82.8174C142.029 82.6574 141.909 82.5614 141.669 82.5294L141.333 82.4814C140.613 82.3854 140.469 81.8814 140.901 80.9694L142.461 77.7534C142.669 77.3374 142.981 77.1294 143.397 77.1294H145.965C146.397 77.1294 146.613 77.3374 146.613 77.7534L146.661 81.4734C146.661 81.8254 146.605 82.0734 146.493 82.2174C146.397 82.3614 146.213 82.4494 145.941 82.4814L145.461 82.5294C145.141 82.5614 144.981 82.6654 144.981 82.8414C144.981 83.0014 145.085 83.0814 145.293 83.0814H149.253C149.525 83.0814 149.661 82.9934 149.661 82.8174C149.661 82.6734 149.565 82.5774 149.373 82.5294L149.061 82.4574C148.757 82.3774 148.557 82.2574 148.461 82.0974C148.365 81.9214 148.309 81.6094 148.293 81.1614L148.029 65.9454C148.029 65.7854 147.997 65.6814 147.933 65.6334C147.885 65.5854 147.821 65.5614 147.741 65.5614C147.677 65.5614 147.605 65.5854 147.525 65.6334C147.445 65.6814 147.365 65.7854 147.285 65.9454L140.109 80.9454C139.901 81.3934 139.685 81.7454 139.461 82.0014C139.221 82.2414 138.941 82.3934 138.621 82.4574L138.237 82.5294C137.981 82.5934 137.853 82.6974 137.853 82.8414ZM146.181 76.4094H143.493C143.381 76.4094 143.301 76.3694 143.253 76.2894C143.205 76.2094 143.213 76.1134 143.277 76.0014L146.421 69.4494H146.541L146.589 76.0014C146.589 76.2734 146.453 76.4094 146.181 76.4094ZM135.972 83.2974C135.764 83.2974 135.628 83.1694 135.564 82.9134L132.06 68.6094C132.044 68.5294 132.004 68.4894 131.94 68.4894C131.876 68.4894 131.828 68.5294 131.796 68.6094L128.94 81.0174C128.828 81.4654 128.82 81.8094 128.916 82.0494C129.028 82.2734 129.276 82.4174 129.66 82.4814L129.948 82.5294C130.156 82.5454 130.244 82.6414 130.212 82.8174C130.164 82.9934 130.02 83.0814 129.78 83.0814H126.348C126.108 83.0814 126.012 82.9934 126.06 82.8174C126.092 82.6414 126.212 82.5454 126.42 82.5294L126.756 82.4814C127.188 82.4174 127.508 82.2734 127.716 82.0494C127.924 81.8094 128.084 81.4654 128.196 81.0174L131.34 67.3854C131.42 67.0494 131.42 66.8254 131.34 66.7134C131.26 66.6014 131.044 66.5134 130.692 66.4494L130.164 66.3534C129.956 66.3054 129.876 66.2094 129.924 66.0654C129.956 65.8894 130.092 65.8014 130.332 65.8014H132.66C133.06 65.8014 133.3 65.9774 133.38 66.3294L136.404 78.7614C136.436 78.8734 136.484 78.9294 136.548 78.9294C136.628 78.9294 136.676 78.8734 136.692 78.7614L139.212 67.8654C139.34 67.3534 139.34 67.0014 139.212 66.8094C139.084 66.6014 138.884 66.4734 138.612 66.4254L138.204 66.3534C137.996 66.3054 137.916 66.2094 137.964 66.0654C137.996 65.8894 138.132 65.8014 138.372 65.8014H141.804C142.044 65.8014 142.148 65.8894 142.116 66.0654C142.052 66.2414 141.924 66.3374 141.732 66.3534L141.396 66.4014C140.964 66.4654 140.644 66.6014 140.436 66.8094C140.244 67.0014 140.084 67.3534 139.956 67.8654L136.524 82.7694C136.444 83.1214 136.26 83.2974 135.972 83.2974ZM120.132 82.8414C120.132 83.0014 120.244 83.0814 120.468 83.0814H124.74C125.028 83.0814 125.172 82.9854 125.172 82.7934C125.172 82.6654 125.068 82.5774 124.86 82.5294L124.38 82.4334C124.06 82.3694 123.86 82.2814 123.78 82.1694C123.716 82.0574 123.716 81.8334 123.78 81.4974L127.044 67.3854C127.124 67.0494 127.228 66.8254 127.356 66.7134C127.484 66.5854 127.724 66.4974 128.076 66.4494L128.556 66.3774C128.876 66.3294 129.036 66.2174 129.036 66.0414C129.036 65.8814 128.924 65.8014 128.7 65.8014H124.428C124.14 65.8014 123.996 65.8974 123.996 66.0894C123.996 66.2174 124.1 66.3054 124.308 66.3534L124.788 66.4494C125.108 66.5134 125.308 66.6014 125.388 66.7134C125.468 66.8254 125.468 67.0494 125.388 67.3854L122.124 81.4974C122.06 81.8334 121.956 82.0654 121.812 82.1934C121.684 82.3054 121.444 82.3854 121.092 82.4334L120.612 82.5054C120.292 82.5534 120.132 82.6654 120.132 82.8414ZM110.531 83.0814C110.307 83.0814 110.195 83.0014 110.195 82.8414C110.195 82.6654 110.355 82.5534 110.675 82.5054L111.155 82.4334C111.507 82.3854 111.747 82.3054 111.875 82.1934C112.019 82.0654 112.123 81.8334 112.187 81.4974L115.451 67.3854C115.531 67.0494 115.531 66.8254 115.451 66.7134C115.371 66.6014 115.171 66.5134 114.851 66.4494L114.371 66.3534C114.163 66.3054 114.059 66.2174 114.059 66.0894C114.059 65.8974 114.203 65.8014 114.491 65.8014H118.835C119.075 65.8014 119.171 65.8974 119.123 66.0894C119.091 66.2334 118.987 66.3214 118.811 66.3534L118.139 66.4494C117.787 66.4974 117.547 66.5854 117.419 66.7134C117.291 66.8414 117.187 67.0734 117.107 67.4094L113.987 80.8494C113.859 81.4254 113.939 81.8414 114.227 82.0974C114.515 82.3534 114.931 82.4814 115.475 82.4814C116.083 82.4814 116.707 82.2494 117.347 81.7854C117.987 81.3214 118.515 80.5934 118.931 79.6014L119.651 77.9214C119.731 77.7134 119.859 77.6094 120.035 77.6094C120.275 77.6094 120.355 77.7454 120.275 78.0174L118.931 82.5294C118.835 82.8974 118.595 83.0814 118.211 83.0814H110.531ZM100.708 81.7614C101.444 82.7854 102.436 83.2974 103.684 83.2974C104.452 83.2974 105.196 83.0894 105.916 82.6734C106.652 82.2414 107.332 81.6494 107.956 80.8974C108.596 80.1294 109.156 79.2574 109.636 78.2814C110.116 77.2894 110.492 76.2254 110.764 75.0894C111.036 73.9534 111.172 72.7934 111.172 71.6094C111.172 69.6094 110.804 68.1054 110.068 67.0974C109.348 66.0734 108.364 65.5614 107.116 65.5614C106.348 65.5614 105.596 65.7774 104.86 66.2094C104.14 66.6254 103.46 67.2174 102.82 67.9854C102.196 68.7374 101.644 69.6094 101.164 70.6014C100.684 71.5774 100.308 72.6334 100.036 73.7694C99.764 74.9054 99.628 76.0654 99.628 77.2494C99.628 79.2334 99.988 80.7374 100.708 81.7614ZM105.364 81.9774C104.804 82.4414 104.228 82.6734 103.636 82.6734C102.052 82.6734 101.26 81.3934 101.26 78.8334C101.26 77.5854 101.364 76.3534 101.572 75.1374C101.796 73.9214 102.1 72.7774 102.484 71.7054C102.868 70.6174 103.308 69.6654 103.804 68.8494C104.316 68.0174 104.852 67.3694 105.412 66.9054C105.988 66.4254 106.572 66.1854 107.164 66.1854C108.748 66.1854 109.54 67.4654 109.54 70.0254C109.54 71.2734 109.428 72.5054 109.204 73.7214C108.996 74.9374 108.7 76.0894 108.316 77.1774C107.932 78.2494 107.484 79.2014 106.972 80.0334C106.476 80.8494 105.94 81.4974 105.364 81.9774ZM95.9566 83.2974C95.2846 83.2974 94.7326 83.0574 94.3006 82.5774C93.8846 82.0974 93.6846 81.4254 93.7006 80.5614L93.7246 77.8974C93.7406 77.0334 93.6926 76.3774 93.5806 75.9294C93.4686 75.4814 93.2606 75.1774 92.9566 75.0174C92.6526 74.8574 92.2046 74.7774 91.6126 74.7774C91.2606 74.7774 90.9966 74.8414 90.8206 74.9694C90.6606 75.0974 90.5486 75.2974 90.4846 75.5694L89.0926 81.4014C89.0126 81.7374 89.0206 81.9694 89.1166 82.0974C89.2126 82.2254 89.4606 82.3214 89.8606 82.3854L90.9166 82.5294C91.1406 82.5454 91.2526 82.6334 91.2526 82.7934C91.2526 82.9854 91.1246 83.0814 90.8686 83.0814H85.7806C85.6972 83.0814 85.6293 83.0703 85.577 83.0481C85.5147 83.0703 85.4354 83.0814 85.3388 83.0814H81.3788C81.1708 83.0814 81.0668 83.0014 81.0668 82.8414C81.0668 82.6654 81.2268 82.5614 81.5468 82.5294L82.0268 82.4814C82.2988 82.4494 82.4828 82.3614 82.5788 82.2174C82.6908 82.0734 82.7468 81.8254 82.7468 81.4734L82.6988 77.7534C82.6988 77.3374 82.4828 77.1294 82.0508 77.1294H79.4828C79.0668 77.1294 78.7548 77.3374 78.5468 77.7534L76.9868 80.9694C76.5548 81.8814 76.6988 82.3854 77.4188 82.4814L77.7548 82.5294C77.9948 82.5614 78.1148 82.6574 78.1148 82.8174C78.1148 82.9934 77.9788 83.0814 77.7068 83.0814H74.2268C74.0937 83.0814 74.0067 83.0429 73.9659 82.966C73.8921 83.0588 73.7953 83.1192 73.6755 83.1473C73.3809 83.2447 72.9564 83.334 72.4019 83.4152C71.8475 83.5126 71.3363 83.5614 70.8684 83.5614C69.0317 83.5614 67.6975 83.0174 66.8658 81.9294C66.0514 80.8415 65.6442 79.2664 65.6442 77.2041C65.6442 76.2136 65.7741 75.1825 66.0341 74.1107C66.294 73.039 66.6665 71.9998 67.1517 70.993C67.6542 69.97 68.252 69.0526 68.9451 68.2407C69.6382 67.4287 70.4179 66.7792 71.2843 66.2921C72.168 65.8049 73.121 65.5614 74.1433 65.5614C75.3563 65.5614 76.4566 65.943 77.4443 66.7061C77.6175 66.8361 77.6782 67.0147 77.6262 67.242L76.8465 70.9199C76.7945 71.1798 76.6645 71.3097 76.4566 71.3097C76.2486 71.3097 76.1447 71.1798 76.1447 70.9199L76.1187 69.97C76.084 68.6222 75.8761 67.6642 75.4949 67.0959C75.1137 66.5275 74.5679 66.2434 73.8574 66.2434C73.1817 66.2434 72.5319 66.5032 71.9081 67.0228C71.2843 67.5262 70.7038 68.2082 70.1667 69.0688C69.6295 69.9132 69.153 70.855 68.7372 71.8942C68.3386 72.9172 68.0267 73.9484 67.8015 74.9876C67.5762 76.0268 67.4636 76.993 67.4636 77.8861C67.4636 79.3476 67.6975 80.5411 68.1654 81.4666C68.6505 82.3922 69.4476 82.855 70.5566 82.855C71.215 82.855 71.7955 82.6358 72.298 82.1973C72.8178 81.7427 73.3463 80.9714 73.8834 79.8834L74.4553 78.7386C74.5419 78.5438 74.6718 78.4463 74.8451 78.4463C75.1224 78.4463 75.2177 78.6006 75.131 78.9091L74.1209 82.6008C74.1758 82.5731 74.2431 82.5493 74.3228 82.5294L74.7068 82.4574C75.0268 82.3934 75.3068 82.2414 75.5468 82.0014C75.7708 81.7454 75.9868 81.3934 76.1948 80.9454L83.3708 65.9454C83.4508 65.7854 83.5308 65.6814 83.6108 65.6334C83.6908 65.5854 83.7628 65.5614 83.8268 65.5614C83.9068 65.5614 83.9708 65.5854 84.0188 65.6334C84.0828 65.6814 84.1148 65.7854 84.1148 65.9454L84.3788 81.1614C84.3948 81.6094 84.4508 81.9214 84.5468 82.0974C84.6428 82.2574 84.8428 82.3774 85.1468 82.4574L85.4588 82.5294C85.5227 82.5453 85.5759 82.5666 85.6185 82.5931C85.6951 82.5537 85.7972 82.5245 85.9246 82.5054L86.4046 82.4334C86.7566 82.3854 86.9966 82.3054 87.1246 82.1934C87.2686 82.0654 87.3726 81.8334 87.4366 81.4974L90.7006 67.3854C90.7806 67.0494 90.7806 66.8254 90.7006 66.7134C90.6206 66.6014 90.4206 66.5134 90.1006 66.4494L89.6206 66.3534C89.4126 66.3054 89.3086 66.2174 89.3086 66.0894C89.3086 65.8974 89.4526 65.8014 89.7406 65.8014H94.6126C95.5566 65.8014 96.3406 65.9694 96.9646 66.3054C97.5886 66.6414 98.0526 67.0894 98.3566 67.6494C98.6766 68.2094 98.8366 68.8254 98.8366 69.4974C98.8366 70.3454 98.6206 71.1134 98.1886 71.8014C97.7566 72.4894 97.1886 73.0734 96.4846 73.5534C95.7966 74.0174 95.0526 74.3614 94.2526 74.5854C94.1566 74.6014 94.1006 74.6494 94.0846 74.7294C94.0846 74.7934 94.1326 74.8494 94.2286 74.8974C94.6766 75.1374 94.9806 75.4734 95.1406 75.9054C95.3006 76.3374 95.3806 76.9134 95.3806 77.6334V80.0814C95.3806 80.9614 95.4766 81.5694 95.6686 81.9054C95.8606 82.2254 96.1246 82.3854 96.4606 82.3854C96.5886 82.3854 96.7006 82.3694 96.7966 82.3374C96.8926 82.2894 97.0206 82.2094 97.1806 82.0974C97.3086 81.9854 97.4206 81.9534 97.5166 82.0014C97.6286 82.0494 97.6846 82.1374 97.6846 82.2654C97.6846 82.4894 97.5166 82.7214 97.1806 82.9614C96.8446 83.1854 96.4366 83.2974 95.9566 83.2974ZM92.4526 74.1774C93.2526 74.1774 94.0046 73.9614 94.7086 73.5294C95.4126 73.0974 95.9806 72.5134 96.4126 71.7774C96.8606 71.0414 97.0846 70.2174 97.0846 69.3054C97.0846 68.4094 96.8606 67.7054 96.4126 67.1934C95.9806 66.6654 95.2206 66.4014 94.1326 66.4014C93.1086 66.4014 92.5166 66.7214 92.3566 67.3614L91.0846 72.8574C90.8766 73.7374 91.3326 74.1774 92.4526 74.1774ZM82.2668 76.4094H79.5788C79.4668 76.4094 79.3868 76.3694 79.3388 76.2894C79.2908 76.2094 79.2988 76.1134 79.3628 76.0014L82.5068 69.4494H82.6268L82.6748 76.0014C82.6748 76.2734 82.5388 76.4094 82.2668 76.4094Z" fill="#0E3142"/>
</svg>
