<?xml version="1.0" standalone="no"?>
<!DOCTYPE svg PUBLIC "-//W3C//DTD SVG 20010904//EN"
 "http://www.w3.org/TR/2001/REC-SVG-20010904/DTD/svg10.dtd">
<svg version="1.0" xmlns="http://www.w3.org/2000/svg"
 width="1000.000000pt" height="1000.000000pt" viewBox="0 0 1000.000000 1000.000000"
 preserveAspectRatio="xMidYMid meet">

<g transform="translate(0.000000,1000.000000) scale(0.100000,-0.100000)"
fill="#000000" stroke="none">
<path d="M3553 7469 c-36 -17 -42 -26 -47 -60 -19 -130 -14 -118 -59 -126 -55
-8 -110 -61 -152 -142 -18 -36 -47 -79 -64 -96 -31 -29 -32 -29 -79 -15 -120
37 -220 3 -267 -91 -26 -51 -73 -89 -111 -89 -17 0 -23 9 -30 43 l-9 42 -46
-1 c-44 0 -51 -5 -138 -84 -69 -63 -94 -94 -103 -123 -14 -46 -39 -64 -150
-106 -54 -21 -105 -52 -170 -103 -141 -110 -156 -116 -289 -127 -63 -6 -134
-17 -158 -26 -95 -34 -155 -102 -196 -226 -36 -107 -56 -122 -146 -113 l-68 6
-14 -50 c-9 -27 -19 -91 -22 -141 -7 -89 -7 -90 16 -95 100 -21 567 -24 807
-6 l147 12 35 33 c49 47 108 71 241 96 395 75 411 79 429 134 10 29 16 33 58
39 117 17 143 18 172 7 33 -11 310 -26 743 -40 250 -8 258 -9 282 -31 14 -13
39 -25 57 -27 37 -4 59 -22 97 -78 15 -22 44 -63 64 -92 20 -29 42 -73 48 -98
l11 -45 432 0 432 0 95 -98 c100 -103 395 -420 570 -611 57 -63 149 -162 205
-220 55 -58 119 -134 143 -168 23 -35 45 -63 49 -63 4 0 43 7 87 15 59 12 109
14 191 9 109 -6 111 -6 128 17 9 13 19 41 23 62 7 44 15 47 29 10 11 -28 11
-28 23 17 41 155 106 268 220 380 87 86 391 299 472 331 29 11 80 37 113 57
59 37 61 37 160 36 56 -1 134 -9 174 -17 67 -13 74 -13 79 2 22 69 60 126 107
162 56 44 96 106 96 151 0 23 -4 28 -23 28 -13 0 -32 -9 -42 -20 -24 -27 -33
-25 -46 8 -6 15 -15 37 -20 50 l-9 23 -34 -26 c-49 -37 -234 -115 -274 -115
-19 0 -49 7 -68 16 -33 16 -79 62 -70 72 3 2 30 -5 61 -17 97 -36 153 -24 219
49 53 59 143 254 128 277 -10 14 -54 36 -152 74 -91 34 -172 80 -154 86 6 2
50 -6 98 -17 48 -11 91 -20 95 -20 5 0 12 25 16 57 l7 56 29 -53 c41 -76 48
-82 81 -75 23 6 35 1 60 -24 18 -17 34 -28 37 -23 3 4 48 5 100 2 127 -7 153
10 226 148 38 71 105 132 145 132 37 0 54 24 75 109 14 52 15 77 6 142 -17
128 -50 172 -128 173 -46 1 -48 -1 -72 -43 -17 -31 -26 -68 -32 -131 -5 -49
-14 -103 -22 -122 l-14 -33 -8 59 c-7 57 -2 178 11 222 4 14 -3 31 -19 50 -24
27 -29 29 -99 27 -40 0 -128 -10 -195 -22 -68 -11 -157 -23 -199 -27 l-77 -7
7 29 c14 54 31 79 51 76 86 -16 101 -14 199 28 54 23 145 54 201 68 115 28
111 21 68 110 -14 29 -24 54 -22 56 2 3 35 -22 73 -55 39 -32 76 -59 83 -59 8
0 13 12 13 30 0 45 14 36 44 -29 15 -32 35 -66 46 -76 16 -15 13 7 -25 151
-25 93 -47 179 -51 192 -4 15 -13 22 -26 20 -14 -2 -30 15 -62 67 l-43 70
-2434 3 -2434 2 -42 -21z"/>
<path d="M3020 5953 c-8 -3 -31 -20 -51 -38 -48 -43 -124 -70 -282 -101 -348
-67 -367 -73 -367 -119 0 -14 -5 -25 -11 -25 -6 0 -27 -13 -46 -30 -18 -16
-38 -30 -43 -30 -6 0 -10 -5 -10 -12 0 -7 -15 -28 -33 -48 -39 -40 -71 -120
-62 -150 4 -11 19 -27 34 -34 15 -8 34 -22 41 -31 8 -9 35 -27 60 -40 26 -13
60 -40 76 -60 16 -20 39 -47 51 -60 25 -28 75 -44 81 -27 2 7 16 12 31 12 23
0 31 -8 49 -48 12 -27 22 -54 22 -60 0 -6 15 -35 34 -64 18 -29 39 -78 45
-108 18 -78 31 -110 47 -110 7 0 21 -15 30 -32 9 -18 22 -40 29 -48 7 -8 18
-31 24 -51 13 -39 77 -100 192 -181 36 -25 71 -54 79 -63 13 -16 46 -99 55
-140 6 -26 64 -75 89 -75 22 0 96 -74 96 -96 0 -8 10 -18 22 -23 20 -7 22 -15
23 -77 0 -66 1 -69 32 -89 23 -14 32 -28 33 -46 0 -18 12 -38 37 -59 20 -18
44 -47 52 -64 10 -19 36 -42 71 -61 30 -16 74 -42 98 -58 38 -25 42 -31 42
-69 0 -49 39 -158 57 -158 11 0 23 -98 23 -195 0 -45 35 -89 79 -100 32 -8 90
-70 97 -105 3 -14 9 -33 15 -42 5 -10 9 -26 9 -36 0 -11 9 -27 20 -37 24 -21
26 -54 5 -81 -21 -27 -18 -70 7 -120 30 -61 51 -81 101 -95 23 -7 53 -23 68
-36 14 -13 37 -23 52 -23 24 0 27 3 25 32 -3 30 1 35 47 60 28 16 58 31 68 34
9 4 17 12 17 19 0 6 9 20 20 30 12 11 20 31 20 52 0 33 0 33 49 33 38 0 56 6
79 25 17 14 37 25 46 25 10 0 16 9 16 23 0 12 7 31 15 41 19 25 19 56 2 56 -8
0 -18 16 -24 35 -9 29 -9 35 3 35 8 0 14 -4 14 -10 0 -14 33 -13 48 2 8 8 15
8 25 0 11 -9 18 -8 32 8 10 11 23 20 30 20 7 0 20 9 30 20 10 11 26 20 36 20
10 0 30 11 46 23 15 13 45 27 66 30 21 3 57 20 79 36 23 17 47 31 54 31 14 0
44 54 44 79 1 9 23 27 52 41 28 14 60 37 72 53 11 15 44 41 72 58 44 25 64 45
64 65 0 3 -9 8 -20 12 -19 7 -19 8 5 45 27 39 49 47 59 21 5 -14 16 -15 64
-10 59 7 92 31 92 65 0 18 39 61 56 61 6 0 24 15 41 32 26 27 31 41 32 81 0
27 5 63 10 80 5 18 15 52 21 77 19 71 57 148 78 155 11 3 23 16 26 29 7 29 70
111 140 184 51 54 147 124 163 121 4 -1 30 7 56 19 l48 22 -22 32 c-12 18 -65
78 -118 133 -53 56 -141 150 -195 210 -55 61 -167 182 -250 271 -83 89 -204
218 -269 288 l-118 126 -470 0 -469 0 0 73 c0 68 -2 75 -40 127 -22 30 -48 67
-58 82 -9 16 -25 28 -35 28 -18 0 -66 -27 -80 -45 -4 -5 -5 8 -1 30 10 74 19
72 -346 85 -286 10 -399 15 -670 35 -36 3 -72 2 -80 -2z"/>
</g>
</svg>
