<?xml version="1.0" standalone="no"?>
<!DOCTYPE svg PUBLIC "-//W3C//DTD SVG 20010904//EN"
 "http://www.w3.org/TR/2001/REC-SVG-20010904/DTD/svg10.dtd">
<svg version="1.0" xmlns="http://www.w3.org/2000/svg"
 width="243.000000pt" height="222.000000pt" viewBox="0 0 243.000000 222.000000"
 preserveAspectRatio="xMidYMid meet">

<g transform="translate(0.000000,222.000000) scale(0.100000,-0.100000)"
fill="#0e3142" stroke="none">
<path d="M996 2210 c-423 -67 -765 -374 -873 -785 -23 -88 -26 -119 -26 -260
0 -140 3 -172 26 -257 100 -376 390 -667 762 -765 88 -23 119 -26 260 -26 140
0 172 3 257 26 376 100 667 390 765 762 23 88 26 119 26 260 0 140 -3 172 -26
257 -123 462 -517 778 -987 793 -69 2 -152 0 -184 -5z m935 -573 c16 -22 37
-101 22 -82 -9 11 -35 13 -43 4 -8 -11 -81 -39 -101 -39 -10 0 -21 -5 -24 -11
-5 -7 14 -8 64 -3 l71 7 1 -39 c1 -37 2 -37 8 -9 8 39 50 49 53 13 3 -46 -2
-58 -41 -98 -43 -44 -80 -52 -119 -24 -14 9 -22 11 -22 4 0 -7 -9 -9 -22 -5
-13 3 -6 -4 15 -15 36 -20 37 -21 23 -49 -21 -39 -41 -54 -67 -46 -14 5 -19 4
-15 -4 10 -15 32 -14 69 5 20 11 32 13 35 6 2 -6 10 -8 18 -5 22 8 17 -11 -13
-48 -25 -30 -33 -34 -68 -31 -31 2 -53 -5 -97 -32 -53 -32 -58 -33 -58 -14 0
11 -9 33 -21 49 -13 19 -19 39 -16 55 3 19 2 22 -9 13 -20 -16 -18 -29 11 -71
31 -46 31 -47 -1 -94 -15 -21 -37 -57 -49 -78 -21 -37 -25 -39 -71 -41 -48 -2
-50 -1 -102 58 -37 42 -49 63 -40 67 7 3 14 19 15 35 2 51 15 109 25 123 8 8
6 12 -3 12 -9 0 -20 -27 -32 -80 -10 -44 -22 -80 -26 -80 -4 0 -16 9 -25 19
-14 16 -15 23 -6 41 6 12 9 24 7 27 -3 2 -8 -5 -12 -16 -12 -39 -25 -21 -25
34 0 30 -3 55 -8 55 -4 0 -6 -18 -4 -40 5 -53 -13 -52 -39 3 -11 23 -17 34
-15 25 4 -14 -1 -18 -20 -18 -20 0 -25 4 -20 17 6 15 5 15 -13 -1 -21 -19 -58
-18 -53 2 3 17 -13 15 -28 -3 -16 -19 -49 -19 -56 0 -4 8 -11 15 -16 15 -6 0
-22 13 -37 28 -26 28 -29 29 -168 36 -116 6 -146 5 -165 -7 -13 -8 -39 -18
-58 -22 -19 -3 -61 -15 -93 -26 -58 -19 -209 -27 -234 -11 -18 11 -4 62 18 62
12 0 26 15 38 39 21 41 37 51 78 51 33 0 106 45 151 93 36 38 57 46 65 25 3
-9 12 -6 29 10 14 12 37 22 54 22 22 0 34 7 47 30 10 17 25 30 33 30 8 0 14 8
14 18 0 10 3 22 7 25 3 4 268 7 587 7 l581 -1 16 -22z m-1041 -360 c31 -15 49
-37 50 -59 0 -10 7 -18 15 -18 10 0 15 -15 17 -57 3 -55 4 -56 16 -30 6 16 8
25 2 22 -6 -4 -10 8 -10 30 0 33 2 35 31 33 29 -2 30 -3 23 -43 -3 -22 -10
-48 -16 -57 -6 -13 -5 -18 5 -18 9 0 17 20 23 57 6 40 14 59 25 61 14 2 15 -5
12 -45 -4 -38 -1 -52 13 -63 16 -14 16 -13 7 5 -6 11 -8 38 -4 60 5 32 11 41
29 43 38 6 52 -14 40 -51 -6 -18 -18 -40 -26 -50 -14 -16 -14 -17 0 -12 8 3
24 22 34 40 17 32 19 33 36 18 10 -9 18 -28 18 -42 0 -19 3 -22 9 -12 7 11 25
-2 80 -60 61 -64 68 -75 53 -84 -38 -22 -93 -91 -104 -129 -16 -56 -39 -85
-65 -86 -13 0 -23 -5 -23 -10 0 -26 -129 -120 -165 -120 -8 0 -12 -6 -9 -14 3
-8 -2 -20 -11 -27 -8 -8 -31 -29 -51 -47 -33 -31 -35 -32 -59 -16 -24 15 -30
27 -26 48 4 18 -22 67 -39 76 -11 6 -20 27 -24 55 -5 38 -14 55 -51 90 -25 25
-45 53 -45 64 0 11 -13 30 -30 43 -16 12 -30 27 -30 33 0 7 -17 27 -38 46 -21
19 -51 62 -67 97 -16 34 -35 62 -42 62 -15 0 -83 51 -83 62 0 4 14 23 31 42
24 28 42 38 90 47 32 6 66 17 76 24 22 16 245 9 283 -8z"/>
<path d="M690 1535 c-30 -32 -40 -114 -16 -135 16 -12 16 -11 6 12 -15 31 2
100 31 129 10 10 15 19 11 19 -5 0 -19 -11 -32 -25z"/>
<path d="M758 1535 c2 -14 6 -25 8 -25 2 0 4 11 4 25 0 14 -4 25 -9 25 -4 0
-6 -11 -3 -25z"/>
<path d="M822 1537 c-6 -16 -8 -25 -2 -22 6 4 10 -6 10 -24 0 -22 -5 -31 -16
-31 -11 0 -14 6 -10 23 4 12 -6 -2 -21 -30 -26 -50 -50 -73 -36 -35 7 18 5 17
-16 -10 -12 -16 -11 -18 11 -18 17 0 27 8 35 30 8 21 18 30 33 30 19 0 22 -4
18 -30 -3 -17 0 -30 6 -30 10 0 11 61 3 150 l-2 25 -13 -28z"/>
<path d="M904 1552 c3 -5 -4 -42 -14 -83 -11 -41 -20 -75 -20 -76 0 -2 6 -3
13 -3 7 0 12 13 13 31 2 61 44 64 44 3 0 -26 4 -34 18 -33 10 0 12 3 5 6 -7 2
-13 20 -13 40 0 26 -5 36 -20 40 -23 6 -23 7 -11 51 8 26 7 32 -5 32 -8 0 -13
-4 -10 -8z"/>
<path d="M960 1553 c14 -7 13 -46 -2 -63 -7 -8 -2 -5 12 8 19 17 22 26 14 39
-6 9 -16 18 -22 19 -7 1 -8 0 -2 -3z"/>
<path d="M1044 1552 c-43 -30 -60 -126 -27 -153 15 -13 15 -12 2 8 -11 19 -11
30 -1 70 7 26 20 56 29 65 17 19 16 23 -3 10z"/>
<path d="M1088 1548 c17 -21 7 -80 -20 -127 -15 -28 -16 -32 -3 -21 44 36 60
126 28 151 -16 13 -17 12 -5 -3z"/>
<path d="M1152 1553 c4 -14 -25 -138 -35 -150 -7 -10 -4 -13 11 -13 14 0 19 5
16 18 -3 9 4 47 14 85 16 54 17 67 6 67 -8 0 -13 -3 -12 -7z"/>
<path d="M1247 1516 c-4 -24 -13 -62 -20 -85 -11 -31 -12 -41 -3 -41 7 0 18
29 25 68 8 37 18 75 23 85 6 12 5 17 -5 17 -9 0 -16 -16 -20 -44z"/>
<path d="M1310 1541 c0 -12 4 -21 9 -21 4 0 14 -27 21 -60 7 -33 17 -60 21
-60 5 0 9 6 9 14 0 8 3 23 6 33 4 13 3 15 -4 5 -7 -10 -13 2 -23 44 -14 57
-39 86 -39 45z"/>
<path d="M1390 1545 c0 -8 2 -15 4 -15 2 0 6 7 10 15 3 8 1 15 -4 15 -6 0 -10
-7 -10 -15z"/>
<path d="M1462 1537 c-6 -16 -8 -25 -2 -22 6 4 10 -6 10 -24 0 -26 -4 -31 -23
-31 -17 0 -28 -10 -40 -35 -9 -19 -13 -35 -9 -35 4 0 13 14 19 30 8 21 18 30
33 30 19 0 22 -4 18 -30 -3 -17 0 -30 6 -30 10 0 11 61 3 150 l-2 25 -13 -28z"/>
<path d="M1301 1494 c0 -11 3 -14 6 -6 3 7 2 16 -1 19 -3 4 -6 -2 -5 -13z"/>
<path d="M1381 1494 c0 -11 3 -14 6 -6 3 7 2 16 -1 19 -3 4 -6 -2 -5 -13z"/>
<path d="M1276 1405 c-3 -9 0 -15 9 -15 9 0 12 6 9 15 -4 8 -7 15 -9 15 -2 0
-5 -7 -9 -15z"/>
<path d="M1170 1400 c-13 -8 -12 -10 3 -10 9 0 17 5 17 10 0 12 -1 12 -20 0z"/>
<path d="M1300 1239 c0 -5 5 -7 10 -4 6 3 10 8 10 11 0 2 -4 4 -10 4 -5 0 -10
-5 -10 -11z"/>
<path d="M1397 1230 c3 -11 7 -20 8 -20 1 0 5 9 8 20 3 12 0 20 -8 20 -8 0
-11 -8 -8 -20z"/>
<path d="M1434 1165 c-16 -66 -17 -85 -7 -85 7 0 12 3 11 8 -1 4 1 22 5 40 9
45 35 42 39 -5 2 -29 8 -39 23 -41 12 -2 16 0 9 5 -6 4 -13 24 -17 44 -4 28
-1 38 14 47 22 14 25 45 5 61 -11 9 -12 6 -8 -14 5 -30 -13 -55 -40 -55 -14 0
-18 5 -14 18 2 9 7 27 11 40 3 12 2 22 -2 22 -5 0 -18 -38 -29 -85z"/>
<path d="M1616 1236 c3 -9 11 -16 16 -16 13 0 5 23 -10 28 -7 2 -10 -2 -6 -12z"/>
<path d="M1365 1171 c-3 -5 -1 -12 5 -16 5 -3 10 1 10 9 0 18 -6 21 -15 7z"/>
<path d="M1541 1108 c-1 -21 4 -28 17 -28 11 0 13 3 6 8 -7 4 -14 16 -17 27
-4 15 -5 14 -6 -7z"/>
<path d="M1368 1098 c-15 -15 -16 -18 -3 -18 9 0 18 7 22 15 8 23 0 24 -19 3z"/>
<path d="M591 1232 c-7 -13 -5 -26 4 -43 39 -67 39 -70 25 -92 -12 -20 -12
-21 3 -8 23 18 21 47 -4 88 -12 18 -19 43 -16 53 6 25 1 26 -12 2z"/>
<path d="M648 1225 c2 -14 6 -25 8 -25 2 0 4 11 4 25 0 14 -4 25 -9 25 -4 0
-6 -11 -3 -25z"/>
<path d="M684 1165 c-13 -56 -16 -85 -9 -85 6 0 12 14 13 31 1 18 6 37 9 42 4
6 8 21 9 34 2 13 5 32 9 43 3 11 2 20 -2 20 -5 0 -18 -38 -29 -85z"/>
<path d="M750 1243 c15 -7 12 -50 -6 -67 -8 -9 -11 -16 -5 -16 6 0 18 12 28
26 17 27 10 55 -15 60 -7 1 -8 0 -2 -3z"/>
<path d="M821 1225 c-43 -93 -43 -93 -14 -87 24 5 25 3 21 -27 -3 -18 0 -31 6
-31 10 0 11 61 3 150 -2 24 -2 24 -16 -5z m9 -45 c0 -20 -5 -30 -15 -30 -18 0
-18 2 -3 35 15 32 18 32 18 -5z"/>
<path d="M561 1108 c-1 -20 4 -28 15 -28 12 0 14 4 7 13 -6 6 -13 19 -16 27
-3 9 -6 3 -6 -12z"/>
<path d="M916 1095 c-3 -8 -1 -15 4 -15 6 0 10 7 10 15 0 8 -2 15 -4 15 -2 0
-6 -7 -10 -15z"/>
<path d="M755 1090 c-3 -5 1 -10 10 -10 9 0 13 5 10 10 -3 6 -8 10 -10 10 -2
0 -7 -4 -10 -10z"/>
</g>
</svg>
