<svg class="nq-i-logo-sundance-spas" aria-hidden="true" role="presentation" xmlns="http://www.w3.org/2000/svg" viewBox="0 0 93.58 13.23" width="93.58" height="13.23"><path d="M3.52 2.09c-.48 0-1.14.2-1.14.83s.42.77 2 1.19 3 1.36 3 3.41a3.53 3.53 0 01-3.63 3.34 5.16 5.16 0 01-3-1l-.8.8v-4.4c2.27 2.8 3.52 2.45 3.52 2.45S5 8.79 5 7.52s-2.82-1.78-3.22-2A2.81 2.81 0 010 2.9 3 3 0 013.26.06 2.72 2.72 0 015.35.7l1-.7v3.82C5 2.29 4 2.09 3.52 2.09"></path><path d="M7.77 4.14V8.6c0 2.27 2.51 1.94 2.51 1.94h1.21l.51-.93v.92h6.8l-1.01-1.65V4.53a.9.9 0 01.81-.33 1.27 1.27 0 011.28 1.32v5H23l-1.08-1.63v-4.4a2.38 2.38 0 00-2.55-2.2c-1.34 0-1.52.9-1.52.9v-.83h-3.32l1.08 1.58V9l-.68.9-.71-.9V2.36h-3.3l1 1.67v4.46a1.06 1.06 0 01-.79.33 1 1 0 01-1.19-1V2.36H6.6z"></path><path d="M31.63 10.54l-.94-1.34V.08h-3.37l1 1.58V3a4.27 4.27 0 00-1.89-.43 4.11 4.11 0 00-4.19 4 3.85 3.85 0 003.91 4.1 5.64 5.64 0 002.4-.6v.46zm-5.15-1.93a2 2 0 112-2 2 2 0 01-2 2"></path><path d="M45.34 9V4.8a2.46 2.46 0 00-2.6-2.45 1.56 1.56 0 00-1.62 1v-.86h-3.26L39 4.25V9l-.66 1-.75-1.05V5.19a3 3 0 00-3.28-2.81 2.77 2.77 0 00-1.34.31L32.14 2v3.06A3.15 3.15 0 0134 4.27a1.37 1.37 0 011.45 1.19A2.95 2.95 0 0031 8.07a2.6 2.6 0 002.66 2.59c1.1 0 1.58-.3 1.81-.61v.49h6.76L41.21 9V4.78a.79.79 0 01.84-.53c.7 0 1.05.46 1.05.77v5.53h3.26zm-11 .08a1.26 1.26 0 111.26-1.26 1.27 1.27 0 01-1.3 1.25"></path><path d="M51.51 2.57a4.47 4.47 0 00-5.94 4.07 4.07 4.07 0 004.2 4.11 6.08 6.08 0 002.64-.68V7.63A4.12 4.12 0 0150 8.83a2.09 2.09 0 01-2.14-2.15A2.19 2.19 0 0150 4.31a3.44 3.44 0 012.39 1.11V2zm5.6 6.15A2.31 2.31 0 0155 7.18h5.68c0-3.52-2.21-4.86-4-4.86a4.1 4.1 0 00-4.05 4.29 3.87 3.87 0 003.91 4 4.41 4.41 0 002.32-.48l1.1.77V7.27a4.5 4.5 0 01-2.84 1.45M56.62 4a2 2 0 011.61 1.12H55A2 2 0 0156.62 4M75.9 2.38a4.49 4.49 0 00-2.13.54v-.46h-3.09l.95 1.34v7.65l-.91 1.78h4.07l-1-1.82V10a6 6 0 002.23.64 4 4 0 004-4.17 4.11 4.11 0 00-4.18-4m-.01 6.13a2 2 0 112-2 2 2 0 01-2 2m11.82 1.93l-1-1.6V5.19a3 3 0 00-3.27-2.81 2.79 2.79 0 00-1.35.31L81.27 2v3.06a3.15 3.15 0 011.83-.79 1.37 1.37 0 011.45 1.19 2.95 2.95 0 00-4.38 2.61 2.58 2.58 0 002.6 2.62 2.38 2.38 0 001.87-.64v.49zm-4.22-1.46a1.26 1.26 0 111.26-1.26 1.26 1.26 0 01-1.26 1.26"></path><path d="M70.09 3.85V0l-1 .7A2.72 2.72 0 0067 .09a3 3 0 00-3.26 2.84 2.79 2.79 0 001.76 2.64c.4.2 3.21.7 3.21 2s-1.45 1.18-1.45 1.18-1.26.34-3.51-2.46v4.38l.8-.8a5.15 5.15 0 003 1 3.53 3.53 0 003.63-3.34c0-2-1.36-3-3-3.41s-2-.55-2-1.19.66-.83 1.14-.83 1.5.2 2.82 1.73m22.58 1.25v-3l-.78.55a2.16 2.16 0 00-1.65-.5 2.4 2.4 0 00-2.58 2.24 2.21 2.21 0 001.39 2.07c.31.16 2.54.56 2.54 1.57s-1.15.93-1.15.93-1 .28-2.78-1.92v3.53l.63-.71a4.07 4.07 0 002.36.81A2.8 2.8 0 0093.58 8a2.7 2.7 0 00-2.37-2.7c-1.29-.33-1.62-.44-1.62-.94s.52-.66.9-.66 1.19.15 2.23 1.37M59 1.91a.8.8 0 111.6 0 .8.8 0 11-1.6 0m.8 1a1 1 0 10-1-1 1 1 0 001 1M59.62 2h.2l.3.5h.2L60 2a.3.3 0 00.3-.31c0-.23-.13-.33-.41-.33h-.43v1.13h.17zm0-.15v-.36h.24c.12 0 .25 0 .25.17s-.13.18-.28.18z"></path></svg>